<?xml version="1.0" encoding="utf-8"?>
<!-- Generator: Adobe Illustrator 26.5.0, SVG Export Plug-In . SVG Version: 6.00 Build 0)  -->
<svg version="1.0" id="Layer_1" xmlns="http://www.w3.org/2000/svg" xmlns:xlink="http://www.w3.org/1999/xlink" x="0px" y="0px"
	 viewBox="0 0 800 1170" style="enable-background:new 0 0 800 1170;" xml:space="preserve">
<style type="text/css">
	.st0{fill:#61C752;}
</style>
<path class="st0" d="M478,61.4c-7.7-1.6-15.4-3-23.1-4c0,0-5.8-1-18.1-1.8C445.7,66.3,451,80,451,95c0,34.2-27.8,62-62,62
	s-62-27.8-62-62c0-13.2,4.1-25.4,11.1-35.4c-9,1.3-14.1,2.4-14.1,2.4C185.5,94.7,67.6,207.2,38.9,344.9
	c-37.6,180.4,32,365,132,523.9c30.7-31.2,180.2-190.9,209.3-369.6c8.7-53.4,8.7-107.7,0-161.6l-4.1-26.9
	c-3.6-31.8-11-61.8-21.7-90.3L372,206c8.4-5.2,18.4-6.7,28.1-4.2c9.7,2.5,17.8,8.6,22.8,17.1l0,0c7.3,12.1,72.4,115.9,174,160.9
	l4,1.8c19.3,8.3,28,30.3,20,50.3c-6.1,13.3-20.6,22.6-35.2,22.6c-5.6,0-10.1-0.8-14.1-2.6c-27.2-11.7-53-26.6-78.7-45.6l-34.2-25.3
	l-1.7,44.3c-1.1,27.8-2.2,56.5-7.3,86.1l-0.1,0.5c-16.9,112.3-77.2,216.4-124.7,283.9c-55.6,78.9-107.2,127.9-107.6,128.3l-1.1,1
	c-1.5,1.5-3.2,2.9-5.1,4.1C267,1008.7,328.3,1080,384.3,1139c13,13.7,34.8,13.8,47.9,0.1c32.2-33.8,92.2-101,153-191.3l2.8-4.8
	l-15.8-27.6L437.3,649.7c12.3-27,22.4-54.7,30.4-82.9L628,880.2c67-112.9,127-251.8,142.2-402.5C789.5,287,678.4,103.4,478,61.4z
	 M337.4,330.6c-24.7,28.8-57.3,77.6-79.7,151.7c-3.1,9.8-9.6,17.8-18.4,22.4c-8.3,4.3-17.7,5.1-26.6,2.3l-0.2-0.1
	c-9.8-3.1-17.8-9.6-22.4-18.4c-4.3-8.3-5.1-17.7-2.3-26.6l0.1-0.3c28.7-94.5,83.2-161.9,123.7-202.7c3.5-3.5,19.1-17.8,22.3-20.9
	c7,20,15.7,42.8,18,77C350.7,316.4,338.7,329.1,337.4,330.6z"/>
</svg>
